<?xml version="1.0" encoding="utf-8"?>
<!-- Generator: Adobe Illustrator 24.2.3, SVG Export Plug-In . SVG Version: 6.00 Build 0)  -->
<svg version="1.1" id="Layer_2" xmlns="http://www.w3.org/2000/svg" xmlns:xlink="http://www.w3.org/1999/xlink" x="0px" y="0px"
	 viewBox="0 0 66.24 66.6" style="enable-background:new 0 0 66.24 66.6;" xml:space="preserve">
<style type="text/css">
	.st0{fill:#87D036;}
</style>
<path class="st0" d="M65.54,36.8c-1.48-1.41-3.24-2.51-5.09-3.3c-0.17-0.07-0.34-0.13-0.51-0.2c0.17-0.07,0.34-0.13,0.51-0.2
	c1.85-0.79,3.61-1.9,5.09-3.3l0.01-0.01c0.44-0.42,0.46-1.12,0.04-1.57c-0.42-0.45-1.12-0.47-1.57-0.05
	c-1.29,1.21-2.8,2.15-4.45,2.85c-0.83,0.35-1.69,0.64-2.57,0.91c-0.21,0.06-0.44,0.13-0.67,0.19c-0.48-0.14-0.95-0.28-1.39-0.42
	c-1.94-0.64-3.79-1.58-5.35-2.8c0.73-1.84,1.87-3.57,3.23-5.1c0.31-0.34,0.65-0.7,0.99-1.06c0.22-0.06,0.46-0.12,0.67-0.17
	c0.9-0.21,1.79-0.39,2.68-0.5c1.78-0.22,3.56-0.16,5.28,0.24c0.59,0.14,1.19-0.23,1.34-0.82c0.14-0.6-0.22-1.2-0.82-1.34l-0.01,0
	c-1.98-0.48-4.06-0.55-6.06-0.32c-0.18,0.02-0.36,0.06-0.54,0.08c0.11-0.14,0.23-0.28,0.34-0.43c1.2-1.61,2.18-3.45,2.76-5.41
	l0-0.01c0.17-0.59-0.16-1.2-0.75-1.38c-0.59-0.18-1.21,0.15-1.39,0.74c-0.51,1.69-1.35,3.26-2.43,4.69
	c-0.54,0.72-1.14,1.4-1.78,2.07c-0.15,0.16-0.32,0.33-0.48,0.5c-0.48,0.12-0.96,0.23-1.41,0.33c-2,0.41-4.07,0.53-6.03,0.24
	c-0.28-1.96-0.17-4.03,0.24-6.03c0.1-0.45,0.21-0.93,0.33-1.41c0.17-0.16,0.33-0.33,0.5-0.48c0.67-0.63,1.35-1.24,2.07-1.78
	c1.43-1.08,3-1.92,4.69-2.43c0.58-0.18,0.92-0.79,0.75-1.38c-0.17-0.59-0.79-0.93-1.38-0.75l-0.01,0c-1.96,0.58-3.8,1.55-5.41,2.76
	c-0.15,0.11-0.28,0.23-0.43,0.34c0.03-0.18,0.06-0.36,0.08-0.54c0.24-2,0.16-4.08-0.32-6.06l0-0.01c-0.14-0.59-0.74-0.96-1.34-0.82
	c-0.6,0.14-0.97,0.74-0.83,1.34c0.4,1.72,0.46,3.5,0.24,5.28c-0.11,0.89-0.29,1.78-0.5,2.68c-0.05,0.22-0.11,0.45-0.17,0.67
	c-0.36,0.35-0.71,0.68-1.06,0.99c-1.53,1.36-3.26,2.49-5.1,3.23c-1.23-1.56-2.16-3.4-2.8-5.35c-0.14-0.44-0.28-0.91-0.42-1.39
	c0.06-0.22,0.12-0.46,0.19-0.67c0.26-0.88,0.55-1.75,0.91-2.57c0.7-1.65,1.64-3.16,2.85-4.45c0.42-0.45,0.4-1.15-0.04-1.57
	c-0.45-0.42-1.15-0.41-1.57,0.04l-0.01,0.01c-1.41,1.48-2.51,3.24-3.3,5.09c-0.07,0.17-0.13,0.34-0.2,0.51
	c-0.07-0.17-0.13-0.34-0.2-0.51c-0.79-1.85-1.9-3.61-3.3-5.09l-0.01-0.01c-0.42-0.44-1.12-0.46-1.57-0.04
	c-0.45,0.42-0.47,1.12-0.05,1.57c1.21,1.29,2.15,2.8,2.85,4.45c0.35,0.83,0.64,1.69,0.91,2.57c0.06,0.21,0.13,0.44,0.19,0.67
	c-0.14,0.48-0.28,0.95-0.42,1.39c-0.64,1.94-1.58,3.79-2.8,5.35c-1.84-0.73-3.57-1.87-5.1-3.23c-0.34-0.31-0.7-0.65-1.06-0.99
	c-0.06-0.22-0.12-0.46-0.17-0.67c-0.21-0.9-0.39-1.79-0.5-2.68c-0.22-1.78-0.16-3.56,0.24-5.28c0.14-0.59-0.23-1.19-0.82-1.34
	c-0.6-0.14-1.2,0.22-1.34,0.82l0,0.01c-0.48,1.98-0.55,4.06-0.32,6.06c0.02,0.18,0.06,0.36,0.08,0.54
	c-0.14-0.11-0.28-0.23-0.43-0.34c-1.61-1.2-3.45-2.18-5.41-2.76l-0.01,0c-0.59-0.17-1.2,0.16-1.38,0.75
	c-0.18,0.59,0.15,1.21,0.74,1.39c1.69,0.51,3.26,1.35,4.69,2.43c0.72,0.54,1.4,1.14,2.07,1.78c0.16,0.15,0.33,0.32,0.5,0.48
	c0.12,0.48,0.23,0.96,0.33,1.41c0.41,2,0.53,4.07,0.24,6.03c-1.96,0.28-4.03,0.17-6.03-0.24c-0.45-0.1-0.93-0.21-1.41-0.33
	c-0.16-0.17-0.33-0.33-0.48-0.5c-0.63-0.67-1.24-1.35-1.78-2.07c-1.08-1.43-1.92-3-2.43-4.69c-0.18-0.58-0.79-0.92-1.38-0.75
	c-0.59,0.17-0.93,0.79-0.75,1.38l0,0.01c0.58,1.96,1.55,3.8,2.76,5.41c0.11,0.15,0.23,0.28,0.34,0.43
	c-0.18-0.03-0.36-0.06-0.54-0.08c-2-0.24-4.08-0.16-6.06,0.32l-0.01,0c-0.59,0.14-0.96,0.74-0.82,1.34c0.14,0.6,0.74,0.97,1.34,0.83
	c1.72-0.4,3.5-0.46,5.28-0.24c0.89,0.11,1.78,0.29,2.68,0.5c0.22,0.05,0.45,0.11,0.67,0.17c0.35,0.36,0.68,0.71,0.99,1.06
	c1.36,1.53,2.49,3.26,3.23,5.1c-1.56,1.23-3.4,2.16-5.35,2.81c-0.44,0.14-0.91,0.28-1.39,0.42c-0.22-0.06-0.46-0.12-0.67-0.19
	c-0.88-0.26-1.75-0.55-2.57-0.91c-1.65-0.7-3.16-1.64-4.45-2.85c-0.45-0.42-1.15-0.4-1.57,0.04c-0.42,0.45-0.41,1.15,0.04,1.57
	L0.7,29.8c1.48,1.41,3.24,2.51,5.09,3.3c0.17,0.07,0.34,0.13,0.51,0.2c-0.17,0.07-0.34,0.13-0.51,0.2c-1.85,0.79-3.61,1.9-5.09,3.3
	l-0.01,0.01c-0.44,0.42-0.46,1.12-0.04,1.57c0.42,0.45,1.12,0.47,1.57,0.05c1.29-1.21,2.8-2.15,4.45-2.85
	c0.83-0.35,1.69-0.64,2.57-0.91c0.21-0.06,0.44-0.13,0.67-0.19c0.48,0.14,0.95,0.28,1.39,0.42c1.94,0.64,3.79,1.58,5.35,2.81
	c-0.73,1.84-1.87,3.57-3.23,5.1c-0.31,0.34-0.65,0.7-0.99,1.06c-0.22,0.06-0.46,0.12-0.67,0.17c-0.9,0.21-1.79,0.39-2.68,0.5
	C7.3,44.76,5.52,44.71,3.8,44.3c-0.59-0.14-1.19,0.23-1.34,0.82c-0.14,0.6,0.22,1.2,0.82,1.34l0.01,0c1.98,0.48,4.06,0.55,6.06,0.32
	c0.18-0.02,0.36-0.06,0.54-0.08c-0.11,0.14-0.23,0.28-0.34,0.43c-1.2,1.61-2.18,3.45-2.76,5.41l0,0.01
	c-0.17,0.59,0.16,1.2,0.75,1.38c0.59,0.18,1.21-0.15,1.39-0.74c0.51-1.69,1.35-3.26,2.43-4.69c0.54-0.72,1.14-1.4,1.78-2.07
	c0.15-0.16,0.32-0.33,0.48-0.5c0.48-0.12,0.96-0.23,1.41-0.33c2-0.41,4.07-0.53,6.03-0.24c0.28,1.96,0.17,4.03-0.24,6.03
	c-0.1,0.45-0.21,0.93-0.33,1.41c-0.17,0.16-0.33,0.33-0.5,0.48c-0.67,0.63-1.35,1.24-2.07,1.78c-1.43,1.08-3,1.92-4.69,2.43
	c-0.58,0.18-0.92,0.79-0.75,1.38c0.17,0.59,0.79,0.93,1.38,0.75l0.01,0c1.96-0.58,3.8-1.55,5.41-2.76c0.15-0.11,0.28-0.23,0.43-0.34
	c-0.03,0.18-0.06,0.36-0.08,0.54c-0.24,2-0.16,4.08,0.32,6.06l0,0.01c0.14,0.59,0.74,0.96,1.34,0.82c0.6-0.14,0.97-0.74,0.83-1.34
	c-0.4-1.72-0.46-3.5-0.24-5.28c0.11-0.89,0.29-1.78,0.5-2.68c0.05-0.22,0.11-0.45,0.17-0.67c0.36-0.35,0.71-0.68,1.06-0.99
	c1.53-1.36,3.26-2.49,5.1-3.23c1.23,1.56,2.16,3.4,2.8,5.35c0.14,0.44,0.28,0.91,0.42,1.39c-0.06,0.22-0.12,0.46-0.19,0.67
	c-0.26,0.88-0.55,1.75-0.91,2.57c-0.7,1.65-1.64,3.16-2.85,4.45c-0.42,0.45-0.4,1.15,0.04,1.57c0.45,0.42,1.15,0.41,1.57-0.04
	l0.01-0.01c1.41-1.48,2.51-3.24,3.3-5.09c0.07-0.17,0.13-0.34,0.2-0.51c0.07,0.17,0.13,0.34,0.2,0.51c0.79,1.85,1.9,3.61,3.3,5.09
	l0.01,0.01c0.42,0.44,1.12,0.46,1.57,0.04c0.45-0.42,0.47-1.12,0.05-1.57c-1.21-1.29-2.15-2.8-2.85-4.45
	c-0.35-0.83-0.64-1.69-0.91-2.57c-0.06-0.21-0.13-0.44-0.19-0.67c0.14-0.48,0.28-0.95,0.42-1.39c0.64-1.94,1.58-3.79,2.8-5.35
	c1.84,0.73,3.57,1.87,5.1,3.23c0.34,0.31,0.7,0.65,1.06,0.99c0.06,0.22,0.12,0.46,0.17,0.67c0.21,0.9,0.39,1.79,0.5,2.68
	c0.22,1.78,0.16,3.56-0.24,5.28c-0.14,0.59,0.23,1.19,0.82,1.34c0.6,0.14,1.2-0.22,1.34-0.82l0-0.01c0.48-1.98,0.55-4.06,0.32-6.06
	c-0.02-0.18-0.06-0.36-0.08-0.54c0.14,0.11,0.28,0.23,0.43,0.34c1.61,1.2,3.45,2.18,5.41,2.76l0.01,0c0.59,0.17,1.2-0.16,1.38-0.75
	c0.18-0.59-0.15-1.21-0.74-1.39c-1.69-0.51-3.26-1.35-4.69-2.43c-0.72-0.54-1.4-1.14-2.07-1.78c-0.16-0.15-0.33-0.32-0.5-0.48
	c-0.12-0.48-0.23-0.96-0.33-1.41c-0.41-2-0.53-4.07-0.24-6.03c1.96-0.28,4.03-0.17,6.03,0.24c0.45,0.1,0.93,0.21,1.41,0.33
	c0.16,0.17,0.33,0.33,0.48,0.5c0.63,0.67,1.24,1.35,1.78,2.07c1.08,1.43,1.92,3,2.43,4.69c0.18,0.58,0.79,0.92,1.38,0.75
	c0.59-0.17,0.93-0.79,0.75-1.38l0-0.01c-0.58-1.96-1.55-3.8-2.76-5.41c-0.11-0.15-0.23-0.28-0.34-0.43
	c0.18,0.03,0.36,0.06,0.54,0.08c2,0.24,4.08,0.16,6.06-0.32l0.01,0c0.59-0.14,0.96-0.74,0.82-1.34c-0.14-0.6-0.74-0.97-1.34-0.83
	c-1.72,0.4-3.5,0.46-5.28,0.24c-0.89-0.11-1.78-0.29-2.68-0.5c-0.22-0.05-0.45-0.11-0.67-0.17c-0.35-0.36-0.68-0.71-0.99-1.06
	c-1.36-1.53-2.49-3.26-3.23-5.1c1.56-1.23,3.4-2.16,5.35-2.8c0.44-0.14,0.91-0.28,1.39-0.42c0.22,0.06,0.46,0.12,0.67,0.19
	c0.88,0.26,1.75,0.55,2.57,0.91c1.65,0.7,3.16,1.64,4.45,2.85c0.45,0.42,1.15,0.4,1.57-0.04C66.01,37.94,65.99,37.24,65.54,36.8
	L65.54,36.8z M44.61,39.93c-0.62,1.08-1.07,2.26-1.39,3.47c-1.21,0.31-2.38,0.77-3.47,1.39c-1.08,0.63-2.06,1.42-2.94,2.31
	c-1.2-0.33-2.45-0.53-3.7-0.53c-1.25,0-2.49,0.2-3.7,0.53c-0.88-0.89-1.85-1.68-2.94-2.31c-1.08-0.62-2.26-1.07-3.47-1.39
	c-0.31-1.21-0.77-2.38-1.39-3.47c-0.63-1.08-1.42-2.06-2.31-2.94c0.33-1.2,0.53-2.45,0.53-3.7c0-1.25-0.2-2.49-0.53-3.7
	c0.89-0.88,1.68-1.85,2.31-2.94c0.62-1.08,1.07-2.26,1.39-3.47c1.21-0.31,2.38-0.77,3.47-1.39c1.08-0.63,2.06-1.42,2.94-2.31
	c1.2,0.33,2.45,0.53,3.7,0.53c1.25,0,2.49-0.2,3.7-0.53c0.88,0.89,1.85,1.68,2.94,2.31c1.08,0.62,2.26,1.07,3.47,1.39
	c0.31,1.21,0.77,2.38,1.39,3.47c0.63,1.08,1.42,2.06,2.31,2.94c-0.33,1.2-0.53,2.45-0.53,3.7c0,1.25,0.2,2.49,0.53,3.7
	C46.03,37.87,45.23,38.85,44.61,39.93z M50.07,23.52c-0.87,1.13-1.64,2.35-2.27,3.66c-0.44-0.52-0.85-1.07-1.19-1.67
	c-0.35-0.59-0.62-1.22-0.85-1.86C47.21,23.77,48.66,23.71,50.07,23.52z M42.9,16.35c-0.19,1.41-0.25,2.85-0.13,4.3
	c-0.64-0.23-1.27-0.5-1.86-0.85c-0.6-0.34-1.15-0.75-1.67-1.19C40.56,18,41.78,17.22,42.9,16.35z M33.12,13.73
	c0.54,1.32,1.21,2.6,2.04,3.79c-0.67,0.12-1.35,0.2-2.04,0.2c-0.69,0.01-1.37-0.07-2.04-0.2C31.91,16.33,32.58,15.05,33.12,13.73z
	 M23.34,16.35c1.13,0.87,2.35,1.64,3.66,2.27c-0.52,0.44-1.07,0.85-1.67,1.19c-0.59,0.35-1.22,0.62-1.86,0.85
	C23.59,19.21,23.53,17.76,23.34,16.35z M20.48,23.65c-0.23,0.64-0.5,1.27-0.85,1.86c-0.34,0.6-0.75,1.15-1.19,1.67
	c-0.62-1.31-1.39-2.53-2.27-3.66C17.58,23.71,19.03,23.77,20.48,23.65z M13.55,33.3c1.32-0.54,2.6-1.21,3.79-2.04
	c0.12,0.67,0.2,1.35,0.2,2.04c0.01,0.69-0.07,1.37-0.2,2.04C16.15,34.51,14.87,33.84,13.55,33.3z M16.17,43.08
	c0.87-1.13,1.64-2.35,2.27-3.66c0.44,0.52,0.85,1.07,1.19,1.67c0.35,0.59,0.62,1.22,0.85,1.86C19.03,42.83,17.58,42.89,16.17,43.08z
	 M23.34,50.25c0.19-1.41,0.25-2.85,0.13-4.3c0.64,0.23,1.27,0.5,1.86,0.85c0.6,0.34,1.15,0.75,1.67,1.19
	C25.68,48.6,24.46,49.38,23.34,50.25z M33.12,52.87c-0.54-1.32-1.21-2.6-2.04-3.79c0.67-0.12,1.35-0.2,2.04-0.2
	c0.69-0.01,1.37,0.07,2.04,0.2C34.33,50.27,33.66,51.55,33.12,52.87z M42.9,50.25c-1.13-0.87-2.35-1.64-3.66-2.27
	c0.52-0.44,1.07-0.85,1.67-1.19c0.59-0.35,1.22-0.62,1.86-0.85C42.65,47.39,42.71,48.84,42.9,50.25z M45.76,42.95
	c0.23-0.64,0.5-1.27,0.85-1.86c0.34-0.6,0.75-1.15,1.19-1.67c0.62,1.31,1.39,2.53,2.27,3.66C48.66,42.89,47.21,42.83,45.76,42.95z
	 M48.7,33.3c-0.01-0.69,0.07-1.37,0.2-2.04c1.19,0.83,2.47,1.5,3.79,2.04c-1.32,0.54-2.6,1.21-3.79,2.04
	C48.77,34.67,48.69,33.99,48.7,33.3z"/>
</svg>
