<?xml version="1.0" encoding="UTF-8" standalone="no"?>
<!-- Created with Inkscape (http://www.inkscape.org/) -->

<svg
   version="1.1"
   id="svg1"
   width="81.90667"
   height="81.90667"
   viewBox="0 0 81.90667 81.90667"
   sodipodi:docname="cornell-logo.svg"
   inkscape:version="1.3.2 (091e20e, 2023-11-25)"
   xmlns:inkscape="http://www.inkscape.org/namespaces/inkscape"
   xmlns:sodipodi="http://sodipodi.sourceforge.net/DTD/sodipodi-0.dtd"
   xmlns="http://www.w3.org/2000/svg"
   xmlns:svg="http://www.w3.org/2000/svg">
  <defs
     id="defs1" />
  <sodipodi:namedview
     id="namedview1"
     pagecolor="#ffffff"
     bordercolor="#000000"
     borderopacity="0.25"
     inkscape:showpageshadow="2"
     inkscape:pageopacity="0.0"
     inkscape:pagecheckerboard="0"
     inkscape:deskcolor="#d1d1d1"
     inkscape:zoom="2.8813283"
     inkscape:cx="40.779804"
     inkscape:cy="40.953335"
     inkscape:window-width="1408"
     inkscape:window-height="449"
     inkscape:window-x="0"
     inkscape:window-y="37"
     inkscape:window-maximized="0"
     inkscape:current-layer="g1">
    <inkscape:page
       x="0"
       y="0"
       inkscape:label="1"
       id="page1"
       width="81.90667"
       height="81.90667"
       margin="0"
       bleed="0" />
  </sodipodi:namedview>
  <g
     id="g1"
     inkscape:groupmode="layer"
     inkscape:label="1">
    <g
       id="group-R5">
      <path
         id="path2"
         d="M 307.156,600 C 145.703,600 14.3438,468.645 14.3438,307.188 14.3438,145.715 145.703,14.3555 307.156,14.3555 468.633,14.3555 600,145.715 600,307.188 600,468.645 468.633,600 307.156,600 Z m 0,-600 C 137.785,0 0,137.805 0,307.188 c 0,169.371 137.785,307.16 307.156,307.16 169.387,0 307.188,-137.789 307.188,-307.16 C 614.344,137.805 476.543,0 307.156,0"
         style="fill:#c4122e;fill-opacity:1;fill-rule:nonzero;stroke:none"
         transform="matrix(0.13333333,0,0,-0.13333333,0,81.906667)" />
      <path
         id="path3"
         d="m 307.156,523.645 c -119.343,0 -216.4451,-97.106 -216.4451,-216.457 0,-119.364 97.1021,-216.4653 216.4451,-216.4653 119.367,0 216.477,97.1013 216.477,216.4653 0,119.351 -97.11,216.457 -216.477,216.457 z m 0,-447.1802 c -127.207,0 -230.6912,103.4962 -230.6912,230.7232 0,127.21 103.4842,230.703 230.6912,230.703 127.227,0 230.723,-103.493 230.723,-230.703 0,-127.227 -103.496,-230.7232 -230.723,-230.7232"
         style="fill:#c4122e;fill-opacity:1;fill-rule:nonzero;stroke:none"
         transform="matrix(0.13333333,0,0,-0.13333333,0,81.906667)" />
      <path
         id="path4"
         d="m 174.789,448.285 -0.019,-182.64 c 0,-92.09 112.89,-149.032 132.425,-158.204 19.512,9.309 132.16,66.836 132.16,154.723 l -0.031,186.152 z M 307.254,91.7305 304.398,92.9609 C 298.52,95.4805 160.426,155.988 160.426,265.645 l 0.019,196.988 293.227,0.027 0.027,-200.496 C 453.699,157.031 315.965,95.5469 310.102,92.9805 l -2.848,-1.25"
         style="fill:#c4122e;fill-opacity:1;fill-rule:nonzero;stroke:none"
         transform="matrix(0.13333333,0,0,-0.13333333,0,81.906667)" />
      <path
         id="path5"
         d="m 214.234,426.895 c -0.015,-18.172 -0.011,-40.582 0.043,-42.286 0.102,-1.386 1.989,-4.093 6.996,-7.445 6.848,-4.59 16.379,-10.348 21.457,-13.367 5.333,2.976 15.508,8.773 22.352,13.363 1.875,1.254 6.227,4.434 6.305,6.985 0.078,2.191 0.058,24.613 0.023,42.75 z m 28.246,-79.602 -3.496,2.043 c -0.636,0.371 -15.636,9.168 -25.695,15.91 -8.5,5.684 -12.859,11.707 -13.324,18.41 -0.082,1.137 -0.106,18.071 -0.074,50.418 l 0.007,7.168 h 85.829 l 0.015,-7.16 c 0.074,-32.367 0.063,-49.324 -0.023,-50.394 -0.196,-6.84 -4.336,-12.887 -12.653,-18.45 -10.14,-6.8 -26.343,-15.636 -27.027,-16.008 l -3.559,-1.937"
         style="fill:#c4122e;fill-opacity:1;fill-rule:nonzero;stroke:none"
         transform="matrix(0.13333333,0,0,-0.13333333,0,81.906667)" />
      <path
         id="path6"
         d="m 346.871,427.238 c -0.019,-18.144 -0.016,-40.519 0.043,-42.269 0.102,-1.395 1.996,-4.11 7.016,-7.477 6.836,-4.586 16.351,-10.332 21.418,-13.355 5.336,2.972 15.519,8.769 22.375,13.359 1.867,1.25 6.222,4.442 6.289,6.973 0.078,2.191 0.058,24.625 0.031,42.769 z m 28.223,-79.601 -3.492,2.047 c -0.637,0.371 -15.618,9.152 -25.664,15.894 -8.508,5.703 -12.868,11.727 -13.336,18.41 -0.086,1.102 -0.114,18.059 -0.075,50.434 l 0.012,7.16 h 85.82 l 0.008,-7.156 c 0.078,-32.375 0.071,-49.336 -0.019,-50.406 -0.164,-6.797 -4.305,-12.856 -12.637,-18.442 -10.164,-6.808 -26.375,-15.637 -27.063,-16.008 l -3.554,-1.933"
         style="fill:#c4122e;fill-opacity:1;fill-rule:nonzero;stroke:none"
         transform="matrix(0.13333333,0,0,-0.13333333,0,81.906667)" />
      <path
         id="path7"
         d="M 448.543,328.023 H 161.547 v 14.2 h 286.996 v -14.2"
         style="fill:#c4122e;fill-opacity:1;fill-rule:nonzero;stroke:none"
         transform="matrix(0.13333333,0,0,-0.13333333,0,81.906667)" />
      <path
         id="path8"
         d="m 292.656,189.746 c 7.293,-0.176 11.668,-3.027 14.246,-5.691 2.711,2.683 7.145,5.722 14.606,5.691 8.437,0 14.762,-0.574 21.445,-1.18 6.574,-0.605 13.371,-1.222 23.344,-1.445 4.098,-0.098 7.851,-0.078 10.824,-0.019 l -0.016,106.55 c -1.023,0 -1.929,-0.004 -2.968,-0.004 -3.68,0 -7.996,0.024 -13.153,0.141 -5.461,0.133 -11.464,0.777 -18.406,1.52 -3.773,0.406 -7.828,0.839 -12.191,1.23 -7.215,0.789 -13.739,-0.496 -13.805,-0.508 -3.742,-0.879 -4.898,-2.414 -4.945,-2.48 l -4.211,2.25 -4.414,-2.547 c 0.004,-0.008 0.004,-0.012 0.004,-0.012 -0.032,0 -1.571,1.875 -5.637,2.832 v 0 c -0.02,0 -6.481,1.25 -13.457,0.481 -4.504,-0.407 -8.543,-0.84 -12.301,-1.242 -6.965,-0.747 -12.98,-1.391 -18.476,-1.524 -6.52,-0.144 -11.7,-0.144 -15.918,-0.137 -0.067,0 -0.129,0 -0.192,0 l -0.019,-106.55 c 2.98,-0.059 6.722,-0.09 10.836,0.019 9.976,0.223 16.769,0.84 23.339,1.445 6.684,0.606 13.008,1.18 21.465,1.18 z m 14.129,-22.207 c -4.836,0 -7.597,3.399 -9.074,5.234 -1.633,2.012 -2.469,2.618 -5.055,2.629 -7.804,0 -13.539,-0.527 -20.16,-1.125 -6.496,-0.593 -13.855,-1.269 -24.312,-1.504 -10.391,-0.234 -18.399,0.196 -18.743,0.215 l -6.769,0.383 0.019,134.43 7.012,0.16 c 2.156,0.047 4.613,0.055 7.543,0.039 4.156,0 9.199,-0.016 15.563,0.137 4.894,0.117 10.636,0.73 17.289,1.445 3.832,0.41 7.949,0.848 12.382,1.242 9.239,1.051 17.653,-0.668 18.004,-0.746 2.567,-0.601 4.735,-1.426 6.563,-2.344 1.769,0.899 3.906,1.711 6.449,2.305 0.524,0.113 8.895,1.844 18.328,0.774 4.293,-0.387 8.43,-0.829 12.281,-1.239 6.625,-0.711 12.356,-1.32 17.223,-1.437 6.367,-0.153 11.434,-0.133 15.567,-0.137 2.91,0.016 5.386,0.008 7.543,-0.039 l 7.015,-0.16 0.02,-134.43 -6.778,-0.383 c -0.34,-0.019 -8.347,-0.449 -18.73,-0.215 -10.457,0.235 -17.82,0.911 -24.317,1.504 -6.73,0.606 -12.539,1.184 -20.554,1.125 -2.809,-0.011 -3.59,-0.898 -5.297,-2.863 -1.629,-1.875 -4.352,-5 -9.012,-5"
         style="fill:#c4122e;fill-opacity:1;fill-rule:nonzero;stroke:none"
         transform="matrix(0.13333333,0,0,-0.13333333,0,81.906667)" />
      <path
         id="path9"
         d="m 278.043,401.27 h -70.949 v 11.933 h 70.949 V 401.27"
         style="fill:#c4122e;fill-opacity:1;fill-rule:nonzero;stroke:none"
         transform="matrix(0.13333333,0,0,-0.13333333,0,81.906667)" />
      <path
         id="path10"
         d="M 312.555,98.3398 H 300.621 V 339.684 h 11.934 V 98.3398"
         style="fill:#c4122e;fill-opacity:1;fill-rule:nonzero;stroke:none"
         transform="matrix(0.13333333,0,0,-0.13333333,0,81.906667)" />
      <path
         id="path11"
         d="m 405.664,387.301 -31.523,21.012 -28.918,-20.883 -6.993,9.675 35.637,25.739 38.418,-25.614 -6.621,-9.929"
         style="fill:#c4122e;fill-opacity:1;fill-rule:nonzero;stroke:none"
         transform="matrix(0.13333333,0,0,-0.13333333,0,81.906667)" />
      <path
         id="path12"
         d="m 363.648,272.066 -18.074,0.489 c -2.871,0.062 -6.164,0.414 -9.972,0.824 l -6.106,0.625 c -1.168,0.129 -2.223,0.141 -3.172,0.101 l -0.265,7.54 c 1.304,0.058 2.714,0.027 4.195,-0.133 l 6.152,-0.633 c 3.571,-0.387 6.657,-0.723 9.36,-0.785 l 18.058,-0.489 -0.176,-7.539"
         style="fill:#c4122e;fill-opacity:1;fill-rule:nonzero;stroke:none"
         transform="matrix(0.13333333,0,0,-0.13333333,0,81.906667)" />
      <path
         id="path13"
         d="m 363.66,249.082 -18.055,0.441 c -2.863,0.067 -6.109,0.411 -9.855,0.809 -1.937,0.207 -4.016,0.434 -6.25,0.641 -1.16,0.121 -2.211,0.175 -3.176,0.121 l -0.265,7.539 c 1.265,0.047 2.707,0 4.179,-0.156 2.223,-0.2 4.34,-0.43 6.313,-0.637 3.512,-0.379 6.554,-0.711 9.219,-0.774 l 18.039,-0.445 -0.149,-7.539"
         style="fill:#c4122e;fill-opacity:1;fill-rule:nonzero;stroke:none"
         transform="matrix(0.13333333,0,0,-0.13333333,0,81.906667)" />
      <path
         id="path14"
         d="m 363.676,226.047 c -1.461,0.019 -4.848,0.117 -8.571,0.215 l -9.515,0.254 c -2.789,0.047 -5.985,0.39 -9.664,0.781 -1.985,0.203 -4.121,0.437 -6.414,0.633 -1.168,0.136 -2.242,0.187 -3.188,0.129 l -0.265,7.539 c 1.265,0.047 2.707,0 4.179,-0.157 2.282,-0.195 4.457,-0.429 6.485,-0.644 3.433,-0.363 6.406,-0.695 9.023,-0.742 l 9.57,-0.246 c 3.676,-0.106 7.036,-0.196 8.477,-0.223 l -0.117,-7.539"
         style="fill:#c4122e;fill-opacity:1;fill-rule:nonzero;stroke:none"
         transform="matrix(0.13333333,0,0,-0.13333333,0,81.906667)" />
      <path
         id="path15"
         d="m 363.656,203.008 -18.082,0.469 c -2.855,0.07 -6.133,0.421 -9.922,0.82 l -6.156,0.625 c -1.156,0.129 -2.207,0.176 -3.172,0.129 l -0.265,7.539 c 1.265,0.027 2.707,-0.012 4.179,-0.156 2.188,-0.207 4.274,-0.43 6.223,-0.637 3.547,-0.379 6.617,-0.711 9.309,-0.781 l 18.043,-0.469 -0.157,-7.539"
         style="fill:#c4122e;fill-opacity:1;fill-rule:nonzero;stroke:none"
         transform="matrix(0.13333333,0,0,-0.13333333,0,81.906667)" />
      <path
         id="path16"
         d="m 250.137,272.262 -0.157,7.539 c 2.75,0.058 12.364,0.312 18.047,0.469 2.762,0.054 5.879,0.394 9.496,0.781 l 6.09,0.621 c 1.285,0.156 2.657,0.195 3.864,0.172 l -0.137,-7.539 c -0.891,-0.012 -1.91,-0.012 -2.942,-0.133 l -6.07,-0.621 c -3.871,-0.414 -7.207,-0.766 -10.129,-0.821 -5.66,-0.156 -15.304,-0.41 -18.062,-0.468"
         style="fill:#c4122e;fill-opacity:1;fill-rule:nonzero;stroke:none"
         transform="matrix(0.13333333,0,0,-0.13333333,0,81.906667)" />
      <path
         id="path17"
         d="m 250.145,249.23 -0.176,7.543 18.066,0.473 c 2.723,0.059 5.813,0.402 9.391,0.793 l 6.183,0.633 c 1.391,0.117 2.715,0.164 3.934,0.117 l -0.273,-7.539 c -0.954,0.055 -1.957,-0.004 -2.989,-0.094 l -6.039,-0.617 c -3.828,-0.422 -7.133,-0.773 -10.031,-0.832 l -18.066,-0.477"
         style="fill:#c4122e;fill-opacity:1;fill-rule:nonzero;stroke:none"
         transform="matrix(0.13333333,0,0,-0.13333333,0,81.906667)" />
      <path
         id="path18"
         d="m 250.113,226.25 -0.109,7.539 c 2.742,0.039 12.348,0.305 18.019,0.469 2.688,0.031 5.676,0.363 9.129,0.722 2.008,0.215 4.161,0.442 6.481,0.645 1.285,0.148 2.644,0.207 3.863,0.148 l -0.176,-7.539 c -0.91,0.008 -1.91,0 -2.937,-0.117 -2.363,-0.207 -4.473,-0.429 -6.434,-0.637 -3.715,-0.39 -6.937,-0.73 -9.769,-0.761 -5.653,-0.164 -15.305,-0.43 -18.067,-0.469"
         style="fill:#c4122e;fill-opacity:1;fill-rule:nonzero;stroke:none"
         transform="matrix(0.13333333,0,0,-0.13333333,0,81.906667)" />
      <path
         id="path19"
         d="m 250.113,203.184 -0.109,7.539 c 2.187,0.039 8.715,0.215 14.144,0.371 l 3.879,0.109 c 2.731,0.059 5.825,0.399 9.411,0.789 l 6.171,0.637 c 1.27,0.144 2.606,0.176 3.844,0.144 l -0.133,-7.539 c -0.925,0 -1.925,0.012 -2.925,-0.105 l -6.149,-0.637 c -3.828,-0.418 -7.133,-0.769 -10.027,-0.828 l -3.86,-0.109 c -5.468,-0.157 -12.046,-0.34 -14.246,-0.371"
         style="fill:#c4122e;fill-opacity:1;fill-rule:nonzero;stroke:none"
         transform="matrix(0.13333333,0,0,-0.13333333,0,81.906667)" />
      <path
         id="path20"
         d="m 208.59,288.68 h 15.617 V 271.52 H 208.59 v 17.16"
         style="fill:#c4122e;fill-opacity:1;fill-rule:nonzero;stroke:none"
         transform="matrix(0.13333333,0,0,-0.13333333,0,81.906667)" />
      <path
         id="path21"
         d="m 208.59,249.004 h 16.457 V 231.836 H 208.59 v 17.168"
         style="fill:#c4122e;fill-opacity:1;fill-rule:nonzero;stroke:none"
         transform="matrix(0.13333333,0,0,-0.13333333,0,81.906667)" />
      <path
         id="path22"
         d="m 208.59,213.508 h 15.617 V 196.406 H 208.59 v 17.102"
         style="fill:#c4122e;fill-opacity:1;fill-rule:nonzero;stroke:none"
         transform="matrix(0.13333333,0,0,-0.13333333,0,81.906667)" />
      <path
         id="path23"
         d="m 388.418,285.277 h 15.625 V 268.16 h -15.625 v 17.117"
         style="fill:#c4122e;fill-opacity:1;fill-rule:nonzero;stroke:none"
         transform="matrix(0.13333333,0,0,-0.13333333,0,81.906667)" />
      <path
         id="path24"
         d="m 388.418,245.625 h 16.465 v -17.156 h -16.465 v 17.156"
         style="fill:#c4122e;fill-opacity:1;fill-rule:nonzero;stroke:none"
         transform="matrix(0.13333333,0,0,-0.13333333,0,81.906667)" />
      <path
         id="path25"
         d="m 388.418,210.148 h 15.625 v -17.14 h -15.625 v 17.14"
         style="fill:#c4122e;fill-opacity:1;fill-rule:nonzero;stroke:none"
         transform="matrix(0.13333333,0,0,-0.13333333,0,81.906667)" />
      <path
         id="path26"
         d="m 66.0508,336.703 c 0.5273,-3.023 0.918,-6.269 0.7226,-9.363 -0.832,-13.184 -8.0976,-21.922 -22.0507,-21.043 -14.1407,0.887 -21.5235,9.91 -20.6719,23.719 0.1758,2.695 0.9336,6.211 2.293,9.117 l 6.9531,-1.024 c -1.9805,-2.988 -2.5703,-5.75 -2.7461,-8.671 -0.5274,-8.395 5.6406,-14.051 14.1172,-14.586 8.4062,-0.539 15.039,4.226 15.5859,12.898 0.2109,3.203 -0.2734,7.043 -1.1523,9.023 l 6.9492,-0.07"
         style="fill:#c4122e;fill-opacity:1;fill-rule:nonzero;stroke:none"
         transform="matrix(0.13333333,0,0,-0.13333333,0,81.906667)" />
      <path
         id="path27"
         d="m 68.6172,371.855 c 2.2851,8.04 -4.1094,13.086 -11.293,15.118 -7.0234,2.007 -15.1133,0.836 -17.3398,-6.993 -2.2149,-7.8 4.0586,-13.054 11.0742,-15.039 7.1719,-2.046 15.2695,-1.132 17.5586,6.914 z m -34.8828,9.922 c 3.4883,12.321 13.8828,16.825 25.9219,13.407 12.0312,-3.403 18.7578,-12.704 15.2265,-25.106 -3.5742,-12.594 -13.9492,-16.832 -26.1562,-13.375 -12.2149,3.481 -18.5508,12.574 -14.9922,25.074"
         style="fill:#c4122e;fill-opacity:1;fill-rule:nonzero;stroke:none"
         transform="matrix(0.13333333,0,0,-0.13333333,0,81.906667)" />
      <path
         id="path28"
         d="m 69.5977,423.488 1.2773,2.375 c 1.8984,3.559 3.543,7.922 -1.0117,10.34 -4.3985,2.344 -6.9063,-1.5 -8.832,-5.098 l -1.2657,-2.375 z m -19.4219,1.082 4.1562,7.785 c 4.1016,7.743 8.7539,17.122 18.9141,11.711 4.2812,-2.285 6.332,-7.023 4.5156,-11.937 l 0.0938,-0.07 c 1.207,1.89 3.8047,1.961 5.8164,1.812 l 17.3481,-1.812 -4.2778,-8.055 -13.7109,1.742 c -3.2813,0.418 -4.8125,0.051 -6.4336,-2.98 l -1.2305,-2.336 15.1641,-8.086 -3.8477,-7.231 -36.5078,19.457"
         style="fill:#c4122e;fill-opacity:1;fill-rule:nonzero;stroke:none"
         transform="matrix(0.13333333,0,0,-0.13333333,0,81.906667)" />
      <path
         id="path29"
         d="m 78.1289,471.832 6.4258,7.734 33.7423,-7.773 0.074,0.09 -23.8124,19.738 4.9922,6.039 31.8512,-26.414 -6.379,-7.687 -33.7847,7.738 -0.0664,-0.09 23.8121,-19.766 -5.007,-6.011 -31.8481,26.402"
         style="fill:#c4122e;fill-opacity:1;fill-rule:nonzero;stroke:none"
         transform="matrix(0.13333333,0,0,-0.13333333,0,81.906667)" />
      <path
         id="path30"
         d="m 119.578,516.777 18.664,15.192 4.117,-5.055 -12.339,-10.019 6.445,-7.918 11.293,9.203 4.117,-5.055 -11.301,-9.203 7.344,-9.016 12.418,10.114 4.113,-5.051 -18.761,-15.285 -26.11,32.093"
         style="fill:#c4122e;fill-opacity:1;fill-rule:nonzero;stroke:none"
         transform="matrix(0.13333333,0,0,-0.13333333,0,81.906667)" />
      <path
         id="path31"
         d="m 160.172,546.613 7.137,4.032 17.093,-30.368 13.801,7.766 3.192,-5.695 -20.946,-11.77 -20.277,36.035"
         style="fill:#c4122e;fill-opacity:1;fill-rule:nonzero;stroke:none"
         transform="matrix(0.13333333,0,0,-0.13333333,0,81.906667)" />
      <path
         id="path32"
         d="m 202.188,567.688 7.699,2.785 11.851,-32.754 14.891,5.371 2.238,-6.117 -22.601,-8.184 -14.078,38.899"
         style="fill:#c4122e;fill-opacity:1;fill-rule:nonzero;stroke:none"
         transform="matrix(0.13333333,0,0,-0.13333333,0,81.906667)" />
      <path
         id="path33"
         d="m 268.141,585.66 8.168,0.68 1.953,-23.824 c 0.582,-7.008 3.187,-11.457 9.437,-10.934 6.215,0.512 8.047,5.313 7.461,12.324 l -1.976,23.844 8.168,0.668 2.179,-26.352 c 0.922,-11.054 -4.879,-16.109 -15.312,-16.988 -10.41,-0.859 -16.981,3.18 -17.899,14.223 l -2.179,26.359"
         style="fill:#c4122e;fill-opacity:1;fill-rule:nonzero;stroke:none"
         transform="matrix(0.13333333,0,0,-0.13333333,0,81.906667)" />
      <path
         id="path34"
         d="m 329.438,587.75 9.964,-1.352 11.27,-32.75 0.129,-0.019 4.121,30.68 7.773,-1.055 -5.535,-40.992 -9.906,1.328 -11.328,32.75 -0.117,0.008 -4.121,-30.645 -7.766,1.035 5.516,41.012"
         style="fill:#c4122e;fill-opacity:1;fill-rule:nonzero;stroke:none"
         transform="matrix(0.13333333,0,0,-0.13333333,0,81.906667)" />
      <path
         id="path35"
         d="m 388.074,576.516 7.813,-2.453 -12.387,-39.477 -7.809,2.457 12.383,39.473"
         style="fill:#c4122e;fill-opacity:1;fill-rule:nonzero;stroke:none"
         transform="matrix(0.13333333,0,0,-0.13333333,0,81.906667)" />
      <path
         id="path36"
         d="m 417.176,566.719 7.832,-3.969 -5.32,-33.707 0.105,-0.047 23.898,24.309 7.247,-3.653 -30.93,-30.73 -8.965,4.531 6.133,43.266"
         style="fill:#c4122e;fill-opacity:1;fill-rule:nonzero;stroke:none"
         transform="matrix(0.13333333,0,0,-0.13333333,0,81.906667)" />
      <path
         id="path37"
         d="m 470.809,536.195 18.976,-14.851 -4.004,-5.117 -12.519,9.785 -6.282,-8.039 11.446,-8.961 -4.004,-5.145 -11.465,8.973 -7.156,-9.156 12.625,-9.871 -4.012,-5.133 -19.062,14.906 25.457,32.609"
         style="fill:#c4122e;fill-opacity:1;fill-rule:nonzero;stroke:none"
         transform="matrix(0.13333333,0,0,-0.13333333,0,81.906667)" />
      <path
         id="path38"
         d="m 501.023,485.66 1.77,-2.027 c 2.656,-3.028 6.16,-6.11 10.027,-2.699 3.75,3.269 1.047,6.976 -1.648,10.046 l -1.777,2.028 z m 7.883,17.797 5.821,-6.621 c 5.789,-6.602 12.91,-14.266 4.265,-21.863 -3.652,-3.2 -8.808,-3.434 -12.773,-0.012 l -0.098,-0.063 c 1.34,-1.793 0.5,-4.242 -0.34,-6.058 l -7.851,-15.602 -6.016,6.856 6.473,12.215 c 1.543,2.918 1.758,4.48 -0.535,7.062 l -1.719,1.981 -12.93,-11.321 -5.41,6.149 31.113,27.277"
         style="fill:#c4122e;fill-opacity:1;fill-rule:nonzero;stroke:none"
         transform="matrix(0.13333333,0,0,-0.13333333,0,81.906667)" />
      <path
         id="path39"
         d="m 547.527,437.855 c -0.351,2.79 -1.238,5.586 -2.695,8.055 -1.434,2.414 -4.336,4.887 -8.223,2.61 -6.179,-3.657 5.539,-17.512 -6.406,-24.575 -7.793,-4.617 -14.363,-0.273 -18.555,6.809 -2.265,3.832 -2.773,5.844 -3.964,9.812 l 6.816,3.168 c 0.109,-3.207 0.891,-6.488 2.512,-9.246 1.59,-2.683 5.066,-5.433 8.281,-3.515 6.805,4.004 -5.129,17.73 6.668,24.703 7.949,4.707 14.465,0.332 18.125,-5.852 1.777,-3.011 3.039,-6.066 3.691,-9.14 l -6.25,-2.829"
         style="fill:#c4122e;fill-opacity:1;fill-rule:nonzero;stroke:none"
         transform="matrix(0.13333333,0,0,-0.13333333,0,81.906667)" />
      <path
         id="path40"
         d="m 565.652,417.266 3.106,-7.582 -38.32,-15.625 -3.086,7.57 38.3,15.637"
         style="fill:#c4122e;fill-opacity:1;fill-rule:nonzero;stroke:none"
         transform="matrix(0.13333333,0,0,-0.13333333,0,81.906667)" />
      <path
         id="path41"
         d="m 572.773,376.309 -2.804,11.351 6.34,1.555 7.546,-30.664 -6.328,-1.555 -2.793,11.363 -33.847,-8.336 -1.953,7.957 33.839,8.329"
         style="fill:#c4122e;fill-opacity:1;fill-rule:nonzero;stroke:none"
         transform="matrix(0.13333333,0,0,-0.13333333,0,81.906667)" />
      <path
         id="path42"
         d="M 562.852,323.004 587,339.27 l 0.539,-9.567 -16.816,-10.586 17.898,-8.855 0.469,-8.657 -25.781,13.215 -16.348,-0.898 -0.449,8.176 16.34,0.906"
         style="fill:#c4122e;fill-opacity:1;fill-rule:nonzero;stroke:none"
         transform="matrix(0.13333333,0,0,-0.13333333,0,81.906667)" />
      <path
         id="path43"
         d="m 72.4805,251.48 6.3437,-22.007 -6.2656,-1.825 -4.0664,14.09 -9.7852,-2.832 3.8516,-13.386 -6.2539,-1.817 -3.8594,13.406 -17.4414,-5.039 -2.293,7.95 39.7696,11.46"
         style="fill:#c4122e;fill-opacity:1;fill-rule:nonzero;stroke:none"
         transform="matrix(0.13333333,0,0,-0.13333333,0,81.906667)" />
      <path
         id="path44"
         d="m 59.3125,184.746 c 3.7227,-7.605 11.8477,-7.098 18.5547,-3.789 6.5508,3.203 11.7617,9.531 8.1367,16.895 -3.6016,7.355 -11.7891,7.082 -18.3398,3.886 -6.711,-3.3 -12.0782,-9.414 -8.3516,-16.992 z m 32.5508,15.996 c 5.7148,-11.621 1.0508,-22.019 -10.1992,-27.527 -11.211,-5.527 -22.4375,-3.067 -28.2032,8.66 -5.8437,11.855 -0.9726,22.031 10.4102,27.609 11.3867,5.586 22.2031,3.008 27.9922,-8.742"
         style="fill:#c4122e;fill-opacity:1;fill-rule:nonzero;stroke:none"
         transform="matrix(0.13333333,0,0,-0.13333333,0,81.906667)" />
      <path
         id="path45"
         d="m 109.461,168.176 5.156,-6.465 -18.6912,-14.844 c -5.5352,-4.375 -7.7539,-9.023 -3.8164,-13.965 3.9258,-4.972 8.9416,-3.859 14.4566,0.547 l 18.704,14.864 5.156,-6.485 -20.711,-16.437 c -8.664,-6.895 -16.1369,-4.844 -22.7267,3.418 -6.5742,8.293 -6.8945,16.066 1.7773,22.961 l 20.6954,16.406"
         style="fill:#c4122e;fill-opacity:1;fill-rule:nonzero;stroke:none"
         transform="matrix(0.13333333,0,0,-0.13333333,0,81.906667)" />
      <path
         id="path46"
         d="m 143.406,128.574 7.883,-6.426 -7.437,-33.8863 0.089,-0.0586 19.59,23.9259 6.137,-5 -26.211,-32.0196 -7.816,6.3867 7.375,33.9529 -0.102,0.059 -19.574,-23.926 -6.133,5 26.199,31.992"
         style="fill:#c4122e;fill-opacity:1;fill-rule:nonzero;stroke:none"
         transform="matrix(0.13333333,0,0,-0.13333333,0,81.906667)" />
      <path
         id="path47"
         d="m 177.109,62.082 4.121,-2.0703 c 6.176,-3.0859 14.45,-1.4844 18.5,6.5821 4.04,8.0273 0.411,15.6445 -5.777,18.7578 l -4.121,2.0703 z m 8.258,34.8711 10.098,-5.0586 C 206.742,86.2109 214.82,77.3945 207.43,62.707 200.074,48.0391 188.164,49.25 176.879,54.9336 l -10.09,5.0391 18.578,36.9804"
         style="fill:#c4122e;fill-opacity:1;fill-rule:nonzero;stroke:none"
         transform="matrix(0.13333333,0,0,-0.13333333,0,81.906667)" />
      <path
         id="path48"
         d="m 233.211,75.6758 23.516,-6.2891 -1.684,-6.289 -15.523,4.1406 -2.618,-9.8438 14.215,-3.789 -1.679,-6.2891 -14.223,3.7891 -2.985,-11.2305 15.645,-4.1797 -1.676,-6.3008 -23.64,6.3008 10.652,39.9805"
         style="fill:#c4122e;fill-opacity:1;fill-rule:nonzero;stroke:none"
         transform="matrix(0.13333333,0,0,-0.13333333,0,81.906667)" />
      <path
         id="path49"
         d="m 281.188,30.8594 4.609,-0.2539 c 6.906,-0.3907 13.855,4.3867 14.383,13.3906 0.492,8.9844 -5.875,14.5117 -12.762,14.9023 l -4.598,0.2539 z M 274.926,66.1445 286.191,65.5 C 298.805,64.7969 309.715,59.8945 308.785,43.5078 307.84,27.1094 296.453,23.4766 283.836,24.1797 l -11.254,0.6445 2.344,41.3203"
         style="fill:#c4122e;fill-opacity:1;fill-rule:nonzero;stroke:none"
         transform="matrix(0.13333333,0,0,-0.13333333,0,81.906667)" />
      <path
         id="path50"
         d="m 357.012,61.9648 -0.117,-0.0195 -2.247,-17.9297 11.778,2.5196 z m -6.192,7.168 9.118,1.9531 24.531,-37.0312 -8.965,-1.9453 -5.445,8.5469 -16.356,-3.5352 -1.535,-10.0117 -8.363,-1.7969 7.015,43.8203"
         style="fill:#c4122e;fill-opacity:1;fill-rule:nonzero;stroke:none"
         transform="matrix(0.13333333,0,0,-0.13333333,0,81.906667)" />
      <path
         id="path51"
         d="m 393.68,46.4961 7.773,2.8125 2.824,-7.793 -7.765,-2.8125 -2.832,7.793"
         style="fill:#c4122e;fill-opacity:1;fill-rule:nonzero;stroke:none"
         transform="matrix(0.13333333,0,0,-0.13333333,0,81.906667)" />
      <path
         id="path52"
         d="m 428.074,58.9961 4.055,2.168 c 6.074,3.3203 9.473,11.0156 5.184,18.9453 -4.286,7.9375 -12.618,9.2851 -18.7,5.9648 l -4.043,-2.1875 z m -23.886,26.6875 9.914,5.3711 c 11.121,6.0547 22.976,7.5976 30.8,-6.8359 7.821,-14.4415 0.028,-23.504 -11.074,-29.5196 l -9.922,-5.3711 -19.718,36.3555"
         style="fill:#c4122e;fill-opacity:1;fill-rule:nonzero;stroke:none"
         transform="matrix(0.13333333,0,0,-0.13333333,0,81.906667)" />
      <path
         id="path53"
         d="m 456.895,78.0195 6.804,4.7344 4.727,-6.8242 -6.785,-4.7266 -4.746,6.8164"
         style="fill:#c4122e;fill-opacity:1;fill-rule:nonzero;stroke:none"
         transform="matrix(0.13333333,0,0,-0.13333333,0,81.906667)" />
      <path
         id="path54"
         d="m 473.953,134.621 5.207,5.137 29.063,-29.465 -5.891,-5.82 -22.43,22.734 -0.976,-8.926 -6.738,0.938 1.765,15.402"
         style="fill:#c4122e;fill-opacity:1;fill-rule:nonzero;stroke:none"
         transform="matrix(0.13333333,0,0,-0.13333333,0,81.906667)" />
      <path
         id="path55"
         d="m 528.105,142.473 c 1.981,2.656 1.836,5.976 -0.917,8.027 -3.282,2.422 -6.934,0.781 -9.883,-1.289 -0.606,-3.223 -0.45,-6.191 2.351,-8.281 2.785,-2.051 6.485,-1.114 8.449,1.543 z m -15.136,11.914 c 0.703,2.343 -0.039,5.742 -2.09,7.246 -2.473,1.855 -5.352,1.543 -7.207,-0.977 -1.789,-2.422 -2.246,-5.82 0.41,-7.793 2.879,-2.109 6.348,-0.117 8.887,1.524 z m -1.965,-7.93 c -3.953,-2.227 -8.32,-2.383 -11.805,0.176 -5.949,4.414 -5.429,10.996 -0.976,17.031 4.324,5.84 10.644,9.316 16.211,5.215 3.015,-2.246 5.136,-6.66 3.894,-11.406 l 0.051,-0.039 c 5.281,2.851 9.629,2.734 13.437,-0.079 6.727,-4.96 6.114,-11.992 1.25,-18.554 -4.777,-6.446 -11.457,-9.621 -18.203,-4.59 -3.73,2.734 -4.758,6.738 -3.769,12.168 l -0.09,0.078"
         style="fill:#c4122e;fill-opacity:1;fill-rule:nonzero;stroke:none"
         transform="matrix(0.13333333,0,0,-0.13333333,0,81.906667)" />
      <path
         id="path56"
         d="m 544.754,182.695 c 3.488,-1.738 7.305,-1.797 9.113,1.856 1.727,3.418 -0.898,6.523 -4.191,8.164 -3.613,1.797 -7.676,1.992 -9.453,-1.563 -1.797,-3.574 0.8,-6.601 4.531,-8.457 z m -11.621,23.996 c -1.817,-1.543 -3.457,-3.195 -4.695,-5.695 -3.176,-6.367 1.667,-11.523 7.078,-14.512 l 0.168,0.079 c -1.68,3.007 -1.7,5.859 -0.157,8.984 3.485,6.973 9.832,8.555 16.68,5.156 8.016,-4.023 11.356,-10.566 7.195,-18.906 -5.125,-10.262 -14.804,-8.289 -23.484,-3.934 -10.051,5.008 -19.453,13.739 -13.488,25.672 1.328,2.688 3.027,5.031 5.187,7.121 l 5.516,-3.965"
         style="fill:#c4122e;fill-opacity:1;fill-rule:nonzero;stroke:none"
         transform="matrix(0.13333333,0,0,-0.13333333,0,81.906667)" />
      <path
         id="path57"
         d="m 546.953,250.797 -4.523,-15.25 8.41,-2.695 c 0.086,0.976 0.223,2.226 0.683,3.73 1.649,5.566 6.415,11.973 16.688,8.906 7.441,-2.207 11.914,-9.199 8.867,-19.402 -0.906,-3.066 -2.48,-6.465 -3.875,-8.906 l -7.062,2.304 c 1.379,1.68 3.379,4.043 4.406,7.481 1.23,4.148 0.586,9.051 -4.473,10.535 -5.117,1.523 -8.215,-2.48 -9.57,-7.012 -0.734,-2.429 -1.066,-4.851 -1.027,-7.41 l -21.192,6.746 6.758,22.711 5.91,-1.738"
         style="fill:#c4122e;fill-opacity:1;fill-rule:nonzero;stroke:none"
         transform="matrix(0.13333333,0,0,-0.13333333,0,81.906667)" />
    </g>
  </g>
</svg>
