<svg id="Layer_1" data-name="Layer 1" xmlns="http://www.w3.org/2000/svg" viewBox="0 0 366.2 113.6">
  <defs>
    <style>.cls-1{fill:#b1040e;}.cls-2{fill:#2e2d29;}</style>
  </defs>
  <title>StanfordMagazineDigitalLogo-Blk-Red-RGB</title>
  <path class="cls-1"
        d="M336.22,226.63h5.4V225h-20.1v1.6H327l-11.6,68.8c-.8,5-3.3,6.5-6.7,6.5h-.3v1.6h17v-1.6h-.6c-6.3,0-8.1-1.3-7.2-6.9l3.69-22.1h13.8l4.81,29h-6.3v1.6h20.5v-1.6h-5.2Zm-14.61,44.5,6.61-39.7,6.59,39.7Z"
        transform="translate(-227.72 -224.33)"/>
  <path class="cls-1"
        d="M268.42,250.13h1.9c2.5-21.2,4.7-23.5,9.9-23.5h2v75.3h-5.7v1.6h20.2v-1.6H291v-75.3h2c5.2,0,7.4,2.3,9.9,23.5h1.9V225h-36.4Z"
        transform="translate(-227.72 -224.33)"/>
  <path class="cls-1"
        d="M390.42,303.53h7.2v-68.2c0-7.4,1.8-8.7,5.8-8.7h.2V225h-16.2v1.6h1c5.2,0,7.1,1.3,7.1,8.7v55.1l-19-65.4h-14v1.6h4.8v66.7c0,7.3-1.8,8.6-5.8,8.6h-.2v1.6h16.3v-1.6h-1.1c-5.2,0-7.1-1.3-7.1-8.6v-61.8Z"
        transform="translate(-227.72 -224.33)"/>
  <path class="cls-1"
        d="M243.22,254.73c-6.3-8-7.7-12.2-7.7-18V236c0-6.3,3.3-10.1,8-10.1,5.4,0,9.2,4.2,11.5,24.2h2.1V225h-1.7l-1.5,4.1c-2.1-3-6.1-4.8-10.6-4.8-8.2,0-15.2,6.1-15.2,16.1v.7c0,5.4,2.8,12.4,6.9,17.7l7.5,9.7c7.4,9.6,9.8,15.5,9.8,22v.7c0,7.3-3.7,11.4-8.7,11.4-5.8,0-10.9-4.5-13.9-24.9h-2v25.7h1.6l2.9-4.6a13.83,13.83,0,0,0,11.5,5.4c9.1,0,16.4-6,16.4-15.9v-.7c0-8.7-2.9-15-11.1-25.5Z"
        transform="translate(-227.72 -224.33)"/>
  <path class="cls-1"
        d="M544.32,296.13v-21.2c0-7-2.6-10.8-10.9-12.1,7.9-1.4,10.6-5.6,10.6-12.9v-11.3c0-9.3-4.5-13.6-18.1-13.6h-17.2v1.6h4.7v75.3h-4.7v1.6h18.9v-1.6h-5.4v-38.1h3.6c8.1,0,9.8,2.8,9.8,9.8v20c0,7.8,2.7,9.9,9.3,9.9h3.8v-1.6C545,301.93,544.32,300.33,544.32,296.13Zm-19-33.9h-3.1v-35.6h3.1c7.9,0,9.9,2.6,9.9,10.7v15.2C535.22,260.53,532.92,262.23,525.32,262.23Z"
        transform="translate(-227.72 -224.33)"/>
  <path class="cls-1"
        d="M575.92,225h-17.1v1.6h4.7v75.3h-4.7v1.6h17.1c12.6,0,18-6.2,18-16.8v-44.8C593.92,231.23,588.52,225,575.92,225Zm9.2,63.8c0,9.5-2.6,13.1-9.2,13.1h-3.6v-75.3h3.6c6.6,0,9.2,3.6,9.2,13.1Z"
        transform="translate(-227.72 -224.33)"/>
  <path class="cls-1"
        d="M477.72,224.33c-10.2,0-16.3,6-16.3,17.6v44.7c0,11.6,6.1,17.6,16.3,17.6s16.3-6,16.3-17.6v-44.7C494,230.33,487.92,224.33,477.72,224.33Zm7.5,65.3c0,10.1-2.8,13-7.5,13s-7.5-2.9-7.5-13v-50.7c0-10.1,2.8-13,7.5-13s7.5,2.9,7.5,13Z"
        transform="translate(-227.72 -224.33)"/>
  <path class="cls-1"
        d="M414.32,226.63H419v75.3h-4.7v1.6H434v-1.6h-6.2v-37.3h3.6c4.4,0,7,1.3,8.3,12.5h1.9v-26.7h-1.9c-1.3,11.3-3.9,12.6-8.3,12.6h-3.6v-36.4h6.5c7.8,0,10.5,2,12.4,20.9h1.9V225h-34.3Z"
        transform="translate(-227.72 -224.33)"/>
  <path class="cls-2"
        d="M363.22,330h5.9v.5c0,2.7-1.7,4.2-4.8,4.2s-5.2-2.1-5.2-6.3v-1.1c0-4.2,2.1-6.3,5.2-6.3s4.4,1.2,4.4,3.3v.2h3.7V324c0-3.7-2.6-6.2-8.1-6.2-6.3,0-9.4,4-9.4,9.5v1.1c0,5.5,3.1,9.5,9.2,9.5,5.9,0,8.7-3.1,8.7-8v-3h-9.6Z"
        transform="translate(-227.72 -224.33)"/>
  <polygon class="cls-2"
           points="60 109.2 54.5 93.9 48.8 93.9 48.8 113.2 52.3 113.2 52.3 97.6 57.8 113.2 61.8 113.2 67.4 97.6 67.4 113.2 71.3 113.2 71.3 93.9 65.4 93.9 60 109.2"/>
  <path class="cls-2" d="M325,318.23l-7.3,19.3h4l1.72-4.9h7.77l1.71,4.9H337l-7.3-19.3Zm-.53,11.4,2.83-8.1,2.84,8.1Z"
        transform="translate(-227.72 -224.33)"/>
  <polygon class="cls-2"
           points="306.8 113.2 321 113.2 321 110 310.9 110 310.9 104.8 319.9 104.8 319.9 101.6 310.9 101.6 310.9 97.1 321 97.1 321 93.9 306.8 93.9 306.8 113.2"/>
  <polygon class="cls-2"
           points="281 107.4 271.3 93.9 267.3 93.9 267.3 113.2 270.8 113.2 270.8 99.1 280.7 113.2 284.5 113.2 284.5 93.9 281 93.9 281 107.4"/>
  <path class="cls-2" d="M400,318.23l-7.3,19.3h4l1.72-4.9h7.77l1.71,4.9H412l-7.3-19.3Zm-.53,11.4,2.83-8.1,2.84,8.1Z"
        transform="translate(-227.72 -224.33)"/>
  <polygon class="cls-2"
           points="219 96.8 219 93.9 204.2 93.9 204.2 97.1 214.4 97.1 203.9 110.3 203.9 113.2 219.2 113.2 219.2 110 208.7 110 219 96.8"/>
  <rect class="cls-2" x="240.7" y="93.9" width="4.1" height="19.3"/>
</svg>